{"title":"Raman Raghav 2.0 Hindi 2016 DesiSCR x264-Hindify.mp4","uid":15578323,"size":1076038126,"categoryP":"video","categoryS":"movies","magnet":"?xt=urn:btih:420a78697e707e5b3e54f6a48a86962be857ae1a&amp;dn=Raman+Raghav+2.0+Hindi+2016+DesiSCR+x264-Hindify.mp4&amp;tr=udp%3A%2F%2Ftracker.leechers-paradise.org%3A6969&amp;tr=udp%3A%2F%2Fzer0day.ch%3A1337&amp;tr=udp%3A%2F%2Fopen.demonii.com%3A1337&amp;tr=udp%3A%2F%2Ftracker.coppersurfer.tk%3A6969&amp;tr=udp%3A%2F%2Fexodus.desync.com%3A6969","seeders":2,"leechers":0,"uploader":null,"files":1,"time":1471369792,"description":"Raman Raghav 2.0 Hindi 2016 DesiSCR x264-Hindify.mp4\r\n\r\nScreenshots:\r\n \nhttp://extraimago.com/images/2016/08/16/vlcsnap-2016-08-16-12h47m12s698.png \nhttp://extraimago.com/images/2016/08/16/vlcsnap-2016-08-16-12h47m07s548.png \nhttp://extraimago.com/images/2016/08/16/vlcsnap-2016-08-16-12h47m04s548.png \nhttp://extraimago.com/images/2016/08/16/vlcsnap-2016-08-16-12h47m01s653.png \nhttp://extraimago.com/images/2016/08/16/vlcsnap-2016-08-16-12h46m58s276.png\r\n\r\nInfo:\r\n\r\nFormat : MPEG-4\r\nFormat profile : Base Media\r\nCodec ID : isom (isom/iso2/avc1/mp41)\r\nFile size : 1.00 GiB\r\nDuration : 2 h 13 min\r\nOverall bit rate : 1 075 kb/s\r\nWriting application : Lavf57.41.100\r\n\r\nVideo\r\nID : 1\r\nFormat : AVC\r\nFormat/Info : Advanced Video Codec\r\nFormat profile :   \r\nFormat settings, CABAC : Yes\r\nFormat settings, ReFrames : 10 frames\r\nCodec ID : avc1\r\nCodec ID/Info : Advanced Video Coding\r\nDuration : 2 h 13 min\r\nBit rate : 907 kb/s\r\nWidth : 1 280 pixels\r\nHeight : 544 pixels\r\nDisplay aspect ratio : 2.35:1\r\nFrame rate mode : Variable\r\nFrame rate : 23.976 (24000/1001) FPS\r\nMinimum frame rate : 23.564 FPS\r\nMaximum frame rate : 24.390 FPS\r\nColor space : YUV\r\nChroma subsampling : 4:2:0\r\nBit depth : 8 bits\r\nScan type : Progressive\r\nBits/(Pixel*Frame) : 0.054\r\nStream size : 866 MiB (84%)\r\nTitle : www.TamilRockers.pm\r\nWriting library : x264 core 142 r2479 dd79a61\r\nEncoding settings : cabac=1 / ref=10 / deblock=1:-1:-1 / analyse=0x3:0x133 / me=umh / subme=10 / psy=1 / psy_rd=1.00:0.15 / mixed_ref=1 / me_range=24 / chroma_me=1 / trellis=2 / 8x8dct=1 / cqm=0 / deadzone=21,11 / fast_pskip=1 / chroma_qp_offset=-3 / threads=60 / lookahead_threads=4 / sliced_threads=0 / nr=0 / decimate=1 / interlaced=0 / bluray_compat=0 / constrained_intra=0 / bframes=5 / b_pyramid=2 / b_adapt=2 / b_bias=0 / direct=1 / weightb=1 / open_gop=0 / weightp=2 / keyint=240 / keyint_min=24 / scenecut=40 / intra_refresh=0 / rc_lookahead=60 / rc=2pass / mbtree=1 / bitrate=907 / ratetol=1.0 / qcomp=0.60 / qpmin=0 / qpmax=69 / qpstep=4 / cplxblur=20.0 / qblur=0.5 / ip_ratio=1.40 / aq=1:1.00\r\nLanguage : English\r\nColor range : Limited\r\nColor primaries : BT.709\r\nTransfer characteristics : BT.709\r\nMatrix coefficients : BT.709\r\n\r\nAudio\r\nID : 2\r\nFormat : AAC\r\nFormat/Info : Advanced Audio Codec\r\nFormat profile : LC\r\nCodec ID : 40\r\nDuration : 2 h 13 min\r\nBit rate mode : Constant\r\nBit rate : 160 kb/s\r\nChannel(s) : 2 channels\r\nChannel positions : Front: L R\r\nSampling rate : 48.0 kHz\r\nFrame rate : 46.875 FPS (1024 spf)\r\nCompression mode : Lossy\r\nStream size : 153 MiB (15%)\r\nLanguage : English\r\nDefault : Yes\r\nAlternate group : 1 \r\n \nhttp://tvmoviereviews.drupalgardens.com/content/raman-raghav-20-review","torrent":{"xt":"urn:btih:420a78697e707e5b3e54f6a48a86962be857ae1a","amp;dn":"Raman+Raghav+2.0+Hindi+2016+DesiSCR+x264-Hindify.mp4","amp;tr":["udp%3A%2F%2Ftracker.leechers-paradise.org%3A6969","udp%3A%2F%2Fzer0day.ch%3A1337","udp%3A%2F%2Fopen.demonii.com%3A1337","udp%3A%2F%2Ftracker.coppersurfer.tk%3A6969","udp%3A%2F%2Fexodus.desync.com%3A6969"],"infoHash":"420a78697e707e5b3e54f6a48a86962be857ae1a","infoHashBuffer":{"type":"Buffer","data":[66,10,120,105,126,112,126,91,62,84,246,164,138,134,150,43,232,87,174,26]},"announce":[],"urlList":[]}}